<svg width="22" height="14" viewBox="0 0 22 14" fill="none" xmlns="http://www.w3.org/2000/svg">
<path d="M11.405 6.62982L11.2775 6.68982H11.2175C11.1484 6.72068 11.0751 6.74091 11 6.74982C10.9377 6.75767 10.8748 6.75767 10.8125 6.74982H10.7525L10.625 6.68982L0.575 0.194824C0.526984 0.375979 0.501789 0.562423 0.5 0.749824V11.2498C0.5 11.8466 0.737053 12.4189 1.15901 12.8408C1.58097 13.2628 2.15326 13.4998 2.75 13.4998H19.25C19.8467 13.4998 20.419 13.2628 20.841 12.8408C21.2629 12.4189 21.5 11.8466 21.5 11.2498V0.749824C21.4982 0.562423 21.473 0.375979 21.425 0.194824L11.405 6.62982Z" fill="#E9ECEF"/>
</svg>
